# xmcd CD database file
#
# Track frame offsets:
#	150
#	18422
#	34055
#	51572
#	74625
#	94660
#	116995
#	130325
#	147870
#	166900
#	182027
#	201200
#	225265
#	237692
#
# Disc length: 3366 seconds
#
# Revision: 0
# Processed by: cddbd v1.5.2PL0 Copyright (c) Steve Scherf et al.
# Submitted via: CDex 1.70beta2
#
DISCID=ce0d240e
DTITLE=Randy Crawford and Joe Sample - Feeling Good
DYEAR=2006
DGENRE=Jazz
TTITLE0=Feeling Good
TTITLE1=End Of The Line
TTITLE2=But Beautiful
TTITLE3=Rio De Janiero Blue
TTITLE4=Lovetown
TTITLE5=See Line Woman
TTITLE6=Tell Me More And More And Then Some
TTITLE7=Everybody's Talking
TTITLE8=When I Need You
TTITLE9=Save Your Love For Me
TTITLE10=Last Night At Danceland
TTITLE11=All Night Long
TTITLE12=The Late, Late Show
TTITLE13=Mr Ugly
EXTD=YEAR: 2006
EXTT0=
EXTT1=
EXTT2=
EXTT3=
EXTT4=
EXTT5=
EXTT6=
EXTT7=
EXTT8=
EXTT9=
EXTT10=
EXTT11=
EXTT12=
EXTT13=
PLAYORDER=
